<svg id="inad-logo" aria-label="Inad Promotion and Printing PLC" data-name="Layer 2" xmlns="http://www.w3.org/2000/svg" viewBox="0 0 237.1 124.15" height="46" style="display:block;">
  <defs>
    <style>
      .cls-1 {
        fill: #ec3892;
      }

      .cls-2 {
        fill: #e1a743;
      }

      .cls-3 {
        fill: #42b1db;
      }

      .cls-4 {
        fill: #60526b;
      }

      .cls-5 {
        fill: #f38b59;
      }

      .cls-6 {
        fill: #40a0cf;
      }

      .cls-7 {
        fill: #c6954c;
      }

      .cls-8 {
        fill: #f27965;
      }

      .cls-9 {
        fill: #3c88bc;
      }

      .cls-10 {
        fill: #bd8f4e;
      }

      .cls-11 {
        fill: #413e75;
      }

      .cls-12 {
        fill: #f06672;
      }

      .cls-13 {
        fill: #3b3a77;
      }

      .cls-14 {
        fill: #386ba7;
      }

      .cls-15 {
        fill: #f06275;
      }

      .cls-16 {
        fill: #345394;
      }

      .cls-17 {
        fill: #ed408d;
      }

      .cls-18 {
        fill: #41a7d4;
      }

      .cls-19 {
        fill: #3f9ccc;
      }

      .cls-20 {
        fill: #91725c;
      }

      .cls-21 {
        fill: #3663a0;
      }

      .cls-22 {
        fill: #ebad40;
      }

      .cls-23 {
        fill: #3a7eb4;
      }

      .cls-24 {
        fill: #314086;
      }

      .cls-25 {
        fill: #705c67;
      }

      .cls-26 {
        fill: #9b7959;
      }

      .cls-27 {
        fill: #826861;
      }

      .cls-28 {
        fill: #43b7e0;
      }

      .cls-29 {
        fill: #98775a;
      }

      .cls-30 {
        fill: #ef597c;
      }

      .cls-31 {
        fill: #314287;
      }

      .cls-32 {
        fill: #f27f61;
      }

      .cls-33 {
        fill: #cf9b49;
      }

      .cls-34 {
        fill: #3b80b6;
      }

      .cls-35 {
        fill: #f17469;
      }

      .cls-36 {
        fill: #5a4e6d;
      }

      .cls-37 {
        fill: #ee537f;
      }

      .cls-38 {
        fill: #c9974b;
      }

      .cls-39 {
        fill: #f6a647;
      }

      .cls-40 {
        fill: #f49651;
      }

      .cls-41 {
        fill: #ef5e78;
      }

      .cls-42 {
        fill: #a47f56;
      }

      .cls-43 {
        fill: #f49055;
      }

      .cls-44 {
        fill: #ed4589;
      }

      .cls-45 {
        fill: #f28160;
      }

      .cls-46 {
        fill: #355797;
      }

      .cls-47 {
        fill: #c3934c;
      }

      .cls-48 {
        fill: #ed3e8e;
      }

      .cls-49 {
        fill: #f1b13e;
      }

      .cls-50 {
        fill: #95755b;
      }

      .cls-51 {
        fill: #40a3d0;
      }

      .cls-52 {
        fill: #3b82b8;
      }

      .cls-53 {
        fill: #886c5f;
      }

      .cls-54 {
        fill: #3f9aca;
      }

      .cls-55 {
        fill: #ef557e;
      }

      .cls-56 {
        fill: #334b8e;
      }

      .cls-57 {
        fill: #ee4986;
      }

      .cls-58 {
        fill: #695869;
      }

      .cls-59 {
        fill: #355b9a;
      }

      .cls-60 {
        fill: #574c6e;
      }

      .cls-61 {
        fill: #42b3dd;
      }

      .cls-62 {
        fill: #d8a146;
      }

      .cls-63 {
        fill: #796264;
      }

      .cls-64 {
        fill: #aa8354;
      }

      .cls-65 {
        fill: #41abd7;
      }

      .cls-66 {
        fill: #386da8;
      }

      .cls-67 {
        fill: #f59e4c;
      }

      .cls-68 {
        fill: #f17668;
      }

      .cls-69 {
        fill: #f7b53c;
      }

      .cls-70 {
        fill: #f59c4d;
      }

      .cls-71 {
        fill: #353679;
      }

      .cls-72 {
        fill: #f49850;
      }

      .cls-73 {
        fill: #313e84;
      }

      .cls-74 {
        fill: #f38d58;
      }

      .cls-75 {
        fill: #43b5de;
      }

      .cls-76 {
        fill: #3e96c7;
      }

      .cls-77 {
        fill: #a17d57;
      }

      .cls-78 {
        fill: #3769a5;
      }

      .cls-79 {
        fill: #32498c;
      }

      .cls-80 {
        fill: #6d5a68;
      }

      .cls-81 {
        fill: #f5a04b;
      }

      .cls-82 {
        fill: #eeaf3f;
      }

      .cls-83 {
        fill: #f5a249;
      }

      .cls-84 {
        fill: #3d90c2;
      }

      .cls-85 {
        fill: #ffffff;
      }

      .cls-86 {
        fill: #ed448a;
      }

      .cls-87 {
        fill: #4b4472;
      }

      .cls-88 {
        fill: #ee4d83;
      }

      .cls-89 {
        fill: #5d506c;
      }

      .cls-90 {
        fill: #f59a4f;
      }

      .cls-91 {
        fill: #36619f;
      }

      .cls-92 {
        fill: #3a7cb3;
      }

      .cls-93 {
        fill: #334d8f;
      }

      .cls-94 {
        fill: #334f91;
      }

      .cls-95 {
        fill: #544a6f;
      }

      .cls-96 {
        fill: #3d92c4;
      }

      .cls-97 {
        fill: #3971ab;
      }

      .cls-98 {
        fill: #386faa;
      }

      .cls-99 {
        fill: #e5a942;
      }

      .cls-100 {
        fill: #3d8cbf;
      }

      .cls-101 {
        fill: #b98d4f;
      }

      .cls-102 {
        fill: #ee5181;
      }

      .cls-103 {
        fill: #41add8;
      }

      .cls-104 {
        fill: #3d8ec1;
      }

      .cls-105 {
        fill: #f3855d;
      }

      .cls-106 {
        fill: #2f327b;
      }

      .cls-107 {
        fill: #3973ad;
      }

      .cls-108 {
        fill: #f3895a;
      }

      .cls-109 {
        fill: #303a81;
      }

      .cls-110 {
        fill: #f49452;
      }

      .cls-111 {
        fill: #32347a;
      }

      .cls-112 {
        fill: #3767a3;
      }

      .cls-113 {
        fill: #cc994a;
      }

      .cls-114 {
        fill: #345595;
      }

      .cls-115 {
        fill: #3e3c76;
      }

      .cls-116 {
        fill: #f4b33d;
      }

      .cls-117 {
        fill: #766065;
      }

      .cls-118 {
        fill: #313c83;
      }

      .cls-119 {
        fill: #f48f56;
      }

      .cls-120 {
        fill: #f7b13f;
      }

      .cls-121 {
        fill: #856a60;
      }

      .cls-122 {
        fill: #ef5d79;
      }

      .cls-123 {
        fill: #f6ab43;
      }

      .cls-124 {
        fill: #f7b33d;
      }

      .cls-125 {
        fill: #ed4787;
      }

      .cls-126 {
        fill: #42afda;
      }

      .cls-127 {
        fill: #484273;
      }

      .cls-128 {
        fill: #32468b;
      }

      .cls-129 {
        fill: #63546b;
      }

      .cls-130 {
        fill: #f27766;
      }

      .cls-131 {
        fill: #d29d48;
      }

      .cls-132 {
        fill: #2f347d;
      }

      .cls-133 {
        fill: #dea544;
      }

      .cls-134 {
        fill: #514870;
      }

      .cls-135 {
        fill: #f3835e;
      }

      .cls-136 {
        fill: #3e98c9;
      }

      .cls-137 {
        fill: #f06076;
      }

      .cls-138 {
        fill: #3b84b9;
      }

      .cls-139 {
        fill: #f6ad41;
      }

      .cls-140 {
        fill: #3976ae;
      }

      .cls-141 {
        fill: #f6af40;
      }

      .cls-142 {
        fill: #ec3c8f;
      }

      .cls-143 {
        fill: #40a5d2;
      }

      .cls-144 {
        fill: #ed428b;
      }

      .cls-145 {
        fill: #383878;
      }

      .cls-146 {
        fill: #355999;
      }

      .cls-147 {
        fill: #f1706c;
      }

      .cls-148 {
        fill: #3978b0;
      }

      .cls-149 {
        fill: #f6a845;
      }

      .cls-150 {
        fill: #b38951;
      }

      .cls-151 {
        fill: #f06474;
      }

      .cls-152 {
        fill: #a78155;
      }

      .cls-153 {
        fill: #365f9d;
      }

      .cls-154 {
        fill: #d59f47;
      }

      .cls-155 {
        fill: #f27d62;
      }

      .cls-156 {
        fill: #ad8553;
      }

      .cls-157 {
        fill: #ef5b7a;
      }

      .cls-158 {
        fill: #41a9d5;
      }

      .cls-159 {
        fill: #ec3a91;
      }

      .cls-160 {
        fill: #66566a;
      }

      .cls-161 {
        fill: #3c8abe;
      }

      .cls-162 {
        fill: #ef577d;
      }

      .cls-163 {
        fill: #324489;
      }

      .cls-164 {
        fill: #735e66;
      }

      .cls-165 {
        fill: #30367e;
      }

      .cls-166 {
        fill: #4e4671;
      }

      .cls-167 {
        fill: #f3875c;
      }

      .cls-168 {
        fill: #f16c6e;
      }

      .cls-169 {
        fill: #355d9c;
      }

      .cls-170 {
        fill: #f06a70;
      }

      .cls-171 {
        fill: #f6a944;
      }

      .cls-172 {
        fill: #9e7b58;
      }

      .cls-173 {
        fill: #7c6463;
      }

      .cls-174 {
        fill: #f16e6d;
      }

      .cls-175 {
        fill: #f06871;
      }

      .cls-176 {
        fill: #8b6e5e;
      }

      .cls-177 {
        fill: #f49254;
      }

      .cls-178 {
        fill: #ee4f82;
      }

      .cls-179 {
        fill: #454074;
      }

      .cls-180 {
        fill: #3765a2;
      }

      .cls-181 {
        fill: #3c86bb;
      }

      .cls-182 {
        fill: #b08752;
      }

      .cls-183 {
        fill: #ee4b85;
      }

      .cls-184 {
        fill: #f5a448;
      }

      .cls-185 {
        fill: #3f9ecd;
      }

      .cls-186 {
        fill: #e8ab41;
      }

      .cls-187 {
        fill: #f27b64;
      }

      .cls-188 {
        fill: #f1726a;
      }

      .cls-189 {
        fill: #8e705d;
      }

      .cls-190 {
        fill: #303880;
      }

      .cls-191 {
        fill: #3e94c6;
      }

      .cls-192 {
        fill: #7f6662;
      }

      .cls-193 {
        fill: #345192;
      }

      .cls-194 {
        fill: #dba345;
      }

      .cls-195 {
        fill: #3a7ab1;
      }

      .cls-196 {
        fill: #b68b50;
      }

      .cls-197 {
        fill: #c0914d;
      }
    </style>
  </defs>
  <g id="Layer_1-2" data-name="Layer 1">
    <g>
      <path class="cls-85" d="M0,39.89h12.71v68.27H0V39.89Z"/>
      <path class="cls-85" d="M144.08,39.89h-14.79l-26.36,68.27h13.19l5.69-15.55,3.98-10.9.9-2.46,10.01-27.41,9.91,27.41h.08l10.49,28.91h13.56l-26.65-68.27Z"/>
      <path class="cls-85" d="M177.55,39.89h25.22c7.59,0,13.94,1.49,19.06,4.46,5.12,2.97,8.94,7.02,11.47,12.14,2.53,5.12,3.79,10.97,3.79,17.54s-1.27,12.42-3.79,17.54c-2.53,5.12-6.35,9.17-11.47,12.14-5.12,2.97-11.47,4.46-19.06,4.46h-25.22V39.89ZM202.77,97.07c7.08,0,12.36-2.12,15.84-6.35,3.48-4.23,5.22-9.8,5.22-16.69s-1.74-12.45-5.22-16.69c-3.48-4.24-8.76-6.35-15.84-6.35h-12.52v46.08h12.52Z"/>
      <g>
        <path class="cls-85" d="M65.75,121.98v-6.81h3.37c.47,0,.86.09,1.17.26.31.18.54.42.7.73.16.31.23.67.23,1.08s-.09.79-.26,1.11c-.17.32-.42.57-.73.75-.32.18-.69.27-1.13.27h-2.41v2.61h-.94ZM66.69,118.55h2.35c.37,0,.67-.12.89-.35.22-.23.33-.55.33-.95,0-.27-.05-.5-.14-.69-.09-.19-.23-.33-.41-.43-.18-.1-.4-.15-.68-.15h-2.35v2.57Z"/>
        <path class="cls-85" d="M72.95,121.98v-6.81h3.59c.46,0,.85.08,1.16.25.31.17.54.4.69.71s.23.65.23,1.04c0,.47-.11.87-.32,1.21-.21.34-.5.58-.88.73l1.43,2.88h-1.03l-1.33-2.71h-2.59v2.71h-.94ZM73.89,118.46h2.55c.38,0,.67-.12.89-.35.21-.23.32-.55.32-.95,0-.25-.05-.46-.14-.64s-.23-.31-.41-.4-.4-.14-.67-.14h-2.55v2.48Z"/>
        <path class="cls-85" d="M83.69,122.1c-.71,0-1.32-.13-1.82-.39s-.9-.65-1.17-1.17c-.28-.52-.41-1.18-.41-1.97s.14-1.45.41-1.97c.27-.52.67-.91,1.17-1.17s1.11-.39,1.82-.39,1.32.13,1.82.39c.51.26.9.65,1.17,1.17.27.52.41,1.18.41,1.97s-.14,1.44-.41,1.97c-.28.52-.67.91-1.17,1.17-.51.26-1.11.39-1.82.39ZM83.69,121.28c.37,0,.71-.05,1.01-.15.3-.1.56-.26.77-.47.21-.21.37-.49.48-.81s.17-.72.17-1.17v-.21c0-.46-.06-.85-.17-1.18-.11-.33-.27-.6-.48-.81-.21-.21-.46-.37-.77-.47-.3-.1-.64-.15-1.01-.15s-.72.05-1.01.15c-.3.1-.55.26-.76.47-.21.22-.37.49-.48.81-.11.33-.16.72-.16,1.18v.21c0,.45.05.84.16,1.17s.27.6.48.81c.21.22.47.37.76.47.3.1.64.15,1.01.15Z"/>
        <path class="cls-85" d="M89.05,121.98v-6.81h1.46l1.55,4.42c.04.12.08.25.12.39.04.14.08.28.12.4.04.13.06.23.08.33h.07c.02-.1.05-.21.08-.34s.07-.26.11-.4.08-.26.11-.38l1.55-4.42h1.45v6.81h-.94v-3.99c0-.21,0-.43,0-.67s.01-.46.02-.67c0-.2,0-.35,0-.43h-.08c-.02.09-.05.21-.1.36-.05.16-.09.32-.14.49-.05.17-.09.32-.13.45l-1.6,4.46h-.81l-1.6-4.46c-.04-.11-.08-.24-.12-.39s-.09-.3-.13-.46c-.04-.16-.08-.31-.12-.45h-.07c0,.15.01.33.01.54,0,.22,0,.43.01.65,0,.22,0,.41,0,.58v3.99h-.91Z"/>
        <path class="cls-85" d="M101.12,122.1c-.71,0-1.32-.13-1.82-.39s-.9-.65-1.17-1.17c-.28-.52-.41-1.18-.41-1.97s.14-1.45.41-1.97c.27-.52.67-.91,1.17-1.17s1.11-.39,1.82-.39,1.32.13,1.82.39c.51.26.9.65,1.17,1.17.27.52.41,1.18.41,1.97s-.14,1.44-.41,1.97c-.28.52-.67.91-1.17,1.17-.51.26-1.11.39-1.82.39ZM101.12,121.28c.37,0,.71-.05,1.01-.15.3-.1.56-.26.77-.47.21-.21.37-.49.48-.81s.17-.72.17-1.17v-.21c0-.46-.06-.85-.17-1.18-.11-.33-.27-.6-.48-.81-.21-.21-.46-.37-.77-.47-.3-.1-.64-.15-1.01-.15s-.72.05-1.01.15c-.3.1-.55.26-.76.47-.21.22-.37.49-.48.81-.11.33-.16.72-.16,1.18v.21c0,.45.05.84.16,1.17s.27.6.48.81c.21.22.47.37.76.47.3.1.64.15,1.01.15Z"/>
        <path class="cls-85" d="M107.92,121.98v-5.99h-2.33v-.82h5.63v.82h-2.35v5.99h-.94Z"/>
        <path class="cls-85" d="M112.87,121.98v-6.81h.94v6.81h-.94Z"/>
        <path class="cls-85" d="M119.18,122.1c-.71,0-1.32-.13-1.82-.39s-.9-.65-1.17-1.17c-.28-.52-.41-1.18-.41-1.97s.14-1.45.41-1.97c.27-.52.67-.91,1.17-1.17s1.11-.39,1.82-.39,1.32.13,1.82.39c.51.26.9.65,1.17,1.17.27.52.41,1.18.41,1.97s-.14,1.44-.41,1.97c-.28.52-.67.91-1.17,1.17-.51.26-1.11.39-1.82.39ZM119.18,121.28c.37,0,.71-.05,1.01-.15.3-.1.56-.26.77-.47.21-.21.37-.49.48-.81s.17-.72.17-1.17v-.21c0-.46-.06-.85-.17-1.18-.11-.33-.27-.6-.48-.81-.21-.21-.46-.37-.77-.47-.3-.1-.64-.15-1.01-.15s-.72.05-1.01.15c-.3.1-.55.26-.76.47-.21.22-.37.49-.48.81-.11.33-.16.72-.16,1.18v.21c0,.45.05.84.16,1.17s.27.6.48.81c.21.22.47.37.76.47.3.1.64.15,1.01.15Z"/>
        <path class="cls-85" d="M124.54,121.98v-6.81h.91l3.31,4.49s.08.1.13.18c.05.08.11.16.16.23s.1.14.13.2h.04v-5.11h.92v6.81h-.86l-3.35-4.57c-.05-.07-.11-.18-.2-.31-.09-.13-.16-.24-.22-.32h-.05v5.2h-.91Z"/>
        <path class="cls-85" d="M134.34,121.98l2.69-6.81h1.24l2.7,6.81h-1.02l-.67-1.69h-3.32l-.66,1.69h-.97ZM136.28,119.48h2.69l-.82-2.14c-.02-.06-.05-.14-.09-.25-.04-.11-.08-.22-.13-.35-.05-.13-.09-.26-.14-.4-.05-.14-.09-.26-.13-.37h-.06c-.05.13-.1.28-.16.46s-.12.34-.18.5c-.06.16-.11.3-.15.41l-.83,2.14Z"/>
        <path class="cls-85" d="M142.49,121.98v-6.81h.91l3.31,4.49s.08.1.13.18c.05.08.11.16.16.23s.1.14.13.2h.04v-5.11h.92v6.81h-.86l-3.35-4.57c-.05-.07-.11-.18-.2-.31-.09-.13-.16-.24-.22-.32h-.05v5.2h-.91Z"/>
        <path class="cls-85" d="M150.4,121.98v-6.81h2.54c.71,0,1.32.12,1.83.36.5.24.89.61,1.16,1.11.27.5.4,1.15.4,1.94s-.13,1.42-.4,1.93c-.27.5-.65.88-1.16,1.12-.5.24-1.11.36-1.83.36h-2.54ZM151.34,121.16h1.58c.38,0,.71-.05,1.01-.14s.55-.24.76-.44c.21-.2.37-.46.48-.77s.16-.69.16-1.13v-.2c0-.45-.05-.83-.16-1.15s-.27-.57-.48-.77c-.21-.2-.46-.35-.76-.44s-.64-.14-1.02-.14h-1.58v5.19Z"/>
        <path class="cls-85" d="M160.96,121.98v-6.81h3.37c.47,0,.86.09,1.17.26.31.18.54.42.7.73.16.31.23.67.23,1.08s-.09.79-.26,1.11c-.17.32-.42.57-.73.75-.32.18-.69.27-1.13.27h-2.41v2.61h-.94ZM161.9,118.55h2.35c.37,0,.67-.12.89-.35.22-.23.33-.55.33-.95,0-.27-.05-.5-.14-.69-.09-.19-.23-.33-.41-.43-.18-.1-.4-.15-.68-.15h-2.35v2.57Z"/>
        <path class="cls-85" d="M168.16,121.98v-6.81h3.59c.46,0,.85.08,1.16.25.31.17.54.4.69.71s.23.65.23,1.04c0,.47-.11.87-.32,1.21-.21.34-.5.58-.88.73l1.43,2.88h-1.03l-1.33-2.71h-2.59v2.71h-.94ZM169.11,118.46h2.55c.38,0,.67-.12.89-.35.21-.23.32-.55.32-.95,0-.25-.05-.46-.14-.64s-.23-.31-.41-.4-.4-.14-.67-.14h-2.55v2.48Z"/>
        <path class="cls-85" d="M175.98,121.98v-6.81h.94v6.81h-.94Z"/>
        <path class="cls-85" d="M179.23,121.98v-6.81h.91l3.31,4.49s.08.1.13.18c.05.08.11.16.16.23s.1.14.13.2h.04v-5.11h.92v6.81h-.86l-3.35-4.57c-.05-.07-.11-.18-.2-.31-.09-.13-.16-.24-.22-.32h-.05v5.2h-.91Z"/>
        <path class="cls-85" d="M188.81,121.98v-5.99h-2.33v-.82h5.63v.82h-2.35v5.99h-.94Z"/>
        <path class="cls-85" d="M193.75,121.98v-6.81h.94v6.81h-.94Z"/>
        <path class="cls-85" d="M197,121.98v-6.81h.91l3.31,4.49s.08.1.13.18c.05.08.11.16.16.23s.1.14.13.2h.04v-5.11h.92v6.81h-.86l-3.35-4.57c-.05-.07-.11-.18-.2-.31-.09-.13-.16-.24-.22-.32h-.05v5.2h-.91Z"/>
        <path class="cls-85" d="M207.98,122.1c-1.1,0-1.94-.29-2.51-.86-.57-.58-.86-1.46-.86-2.66,0-.78.13-1.43.4-1.96.26-.52.66-.92,1.17-1.18s1.15-.39,1.89-.39c.46,0,.88.05,1.26.15.38.1.7.25.98.45.28.2.49.46.64.76.15.3.22.67.22,1.08h-.96c0-.29-.05-.54-.16-.75-.11-.21-.26-.38-.45-.51-.2-.13-.42-.23-.68-.28-.26-.06-.53-.08-.82-.08-.4,0-.75.05-1.06.15-.31.1-.57.25-.79.47s-.37.48-.49.81c-.11.33-.17.73-.17,1.18v.21c0,.62.09,1.12.28,1.5.19.38.46.66.82.84.36.18.79.26,1.29.26s.93-.07,1.26-.21c.33-.14.58-.36.74-.65s.24-.66.24-1.1v-.12h-2.4v-.8h3.36v3.59h-.72l-.1-.86c-.18.23-.39.42-.64.57-.25.15-.51.25-.81.32-.29.07-.61.1-.94.1Z"/>
        <path class="cls-85" d="M216.08,121.98v-6.81h3.37c.47,0,.86.09,1.17.26.31.18.54.42.7.73.16.31.23.67.23,1.08s-.09.79-.26,1.11c-.17.32-.42.57-.73.75-.32.18-.69.27-1.13.27h-2.41v2.61h-.94ZM217.03,118.55h2.35c.37,0,.67-.12.89-.35.22-.23.33-.55.33-.95,0-.27-.05-.5-.14-.69-.09-.19-.23-.33-.41-.43-.18-.1-.4-.15-.68-.15h-2.35v2.57Z"/>
        <path class="cls-85" d="M223.29,121.98v-6.81h.94v5.99h3.39v.82h-4.33Z"/>
        <path class="cls-85" d="M231.82,122.1c-.7,0-1.28-.13-1.77-.38s-.85-.64-1.11-1.16c-.25-.52-.38-1.18-.38-1.98,0-1.19.29-2.07.86-2.65.58-.58,1.38-.87,2.4-.87.58,0,1.1.09,1.55.28.45.19.8.47,1.06.85s.38.86.38,1.44h-.95c0-.4-.08-.73-.25-.98s-.41-.45-.71-.58c-.3-.13-.66-.19-1.07-.19-.48,0-.89.09-1.23.28-.34.19-.61.47-.79.86-.18.39-.27.89-.27,1.5v.21c0,.6.09,1.09.27,1.48.18.38.44.66.78.84.34.18.75.27,1.24.27.42,0,.79-.06,1.1-.19.31-.13.55-.32.71-.58.17-.26.25-.59.25-.99h.92c0,.59-.13,1.07-.39,1.45-.26.38-.62.66-1.07.84-.45.19-.96.28-1.54.28Z"/>
      </g>
      <g>
        <path class="cls-85" d="M134.76,10.29h-2.46v-1.29h6.38v1.29h-2.47v6.4h-1.45v-6.4Z"/>
        <path class="cls-85" d="M141.54,10.87v5.81h-1.38v-7.69h2.06l2.02,5.97,2.01-5.97h2.07v7.69h-1.39v-5.81l-2.08,5.81h-1.23l-2.08-5.81Z"/>
      </g>
      <g>
        <circle class="cls-1" cx="123.96" cy="5.68" r="5.68"/>
        <circle class="cls-159" cx="123.38" cy="7.07" r="5.71"/>
        <circle class="cls-142" cx="122.81" cy="8.45" r="5.74"/>
        <circle class="cls-48" cx="122.24" cy="9.84" r="5.77"/>
        <circle class="cls-17" cx="121.67" cy="11.22" r="5.8"/>
        <circle class="cls-144" cx="121.1" cy="12.61" r="5.83"/>
        <circle class="cls-86" cx="120.53" cy="13.99" r="5.87"/>
        <circle class="cls-44" cx="119.95" cy="15.37" r="5.9"/>
        <circle class="cls-125" cx="119.38" cy="16.76" r="5.93"/>
        <circle class="cls-57" cx="118.81" cy="18.14" r="5.97"/>
        <circle class="cls-183" cx="118.24" cy="19.53" r="6"/>
        <circle class="cls-88" cx="117.67" cy="20.91" r="6.04"/>
        <circle class="cls-178" cx="117.1" cy="22.3" r="6.07"/>
        <circle class="cls-102" cx="116.52" cy="23.68" r="6.11"/>
        <circle class="cls-37" cx="115.95" cy="25.07" r="6.14"/>
        <circle class="cls-55" cx="115.38" cy="26.45" r="6.18"/>
        <circle class="cls-162" cx="114.81" cy="27.84" r="6.22"/>
        <circle class="cls-30" cx="114.24" cy="29.22" r="6.26"/>
        <circle class="cls-157" cx="113.67" cy="30.61" r="6.3"/>
        <circle class="cls-122" cx="113.09" cy="31.99" r="6.33"/>
        <circle class="cls-41" cx="112.52" cy="33.37" r="6.37"/>
        <circle class="cls-137" cx="111.95" cy="34.76" r="6.41"/>
        <circle class="cls-15" cx="111.38" cy="36.14" r="6.45"/>
        <circle class="cls-151" cx="110.81" cy="37.53" r="6.5"/>
        <circle class="cls-12" cx="110.24" cy="38.91" r="6.54"/>
        <circle class="cls-175" cx="109.66" cy="40.3" r="6.58"/>
        <circle class="cls-170" cx="109.09" cy="41.68" r="6.62"/>
        <circle class="cls-168" cx="108.52" cy="43.07" r="6.66"/>
        <circle class="cls-174" cx="107.95" cy="44.45" r="6.71"/>
        <circle class="cls-147" cx="107.38" cy="45.84" r="6.75"/>
        <circle class="cls-188" cx="106.81" cy="47.22" r="6.79"/>
        <circle class="cls-35" cx="106.23" cy="48.61" r="6.84"/>
        <circle class="cls-68" cx="105.66" cy="49.99" r="6.88"/>
        <circle class="cls-130" cx="105.09" cy="51.37" r="6.93"/>
        <circle class="cls-8" cx="104.52" cy="52.76" r="6.97"/>
        <circle class="cls-187" cx="103.95" cy="54.14" r="7.02"/>
        <circle class="cls-155" cx="103.38" cy="55.53" r="7.07"/>
        <circle class="cls-32" cx="102.81" cy="56.91" r="7.11"/>
        <circle class="cls-45" cx="102.23" cy="58.3" r="7.16"/>
        <circle class="cls-135" cx="101.66" cy="59.68" r="7.21"/>
        <circle class="cls-105" cx="101.09" cy="61.07" r="7.25"/>
        <circle class="cls-167" cx="100.52" cy="62.45" r="7.3"/>
        <circle class="cls-108" cx="99.95" cy="63.84" r="7.35"/>
        <circle class="cls-5" cx="99.38" cy="65.22" r="7.4"/>
        <circle class="cls-74" cx="98.8" cy="66.61" r="7.45"/>
        <circle class="cls-119" cx="98.23" cy="67.99" r="7.5"/>
        <circle class="cls-43" cx="97.66" cy="69.37" r="7.55"/>
        <circle class="cls-177" cx="97.09" cy="70.76" r="7.6"/>
        <circle class="cls-110" cx="96.52" cy="72.14" r="7.65"/>
        <circle class="cls-40" cx="95.95" cy="73.53" r="7.7"/>
        <circle class="cls-72" cx="95.37" cy="74.91" r="7.75"/>
        <circle class="cls-90" cx="94.8" cy="76.3" r="7.8"/>
        <circle class="cls-70" cx="94.23" cy="77.68" r="7.85"/>
        <circle class="cls-67" cx="93.66" cy="79.07" r="7.9"/>
        <circle class="cls-81" cx="93.09" cy="80.45" r="7.95"/>
        <circle class="cls-83" cx="92.52" cy="81.84" r="8"/>
        <circle class="cls-184" cx="91.94" cy="83.22" r="8.05"/>
        <circle class="cls-39" cx="91.37" cy="84.61" r="8.11"/>
        <circle class="cls-149" cx="90.8" cy="85.99" r="8.16"/>
        <circle class="cls-171" cx="90.23" cy="87.37" r="8.21"/>
        <circle class="cls-123" cx="89.66" cy="88.76" r="8.26"/>
        <circle class="cls-139" cx="89.09" cy="90.14" r="8.32"/>
        <circle class="cls-141" cx="88.51" cy="91.53" r="8.37"/>
        <circle class="cls-120" cx="87.94" cy="92.91" r="8.42"/>
        <circle class="cls-124" cx="87.37" cy="94.3" r="8.48"/>
        <circle class="cls-69" cx="86.8" cy="95.68" r="8.53"/>
        <circle class="cls-116" cx="86.23" cy="96.52" r="8.51"/>
        <circle class="cls-49" cx="85.47" cy="97.07" r="8.49"/>
        <circle class="cls-82" cx="84.6" cy="97.34" r="8.47"/>
        <circle class="cls-22" cx="83.7" cy="97.34" r="8.45"/>
        <circle class="cls-186" cx="82.83" cy="97.07" r="8.43"/>
        <circle class="cls-99" cx="82.08" cy="96.54" r="8.41"/>
        <circle class="cls-2" cx="81.52" cy="95.76" r="8.39"/>
        <circle class="cls-133" cx="81.21" cy="94.81" r="8.37"/>
        <circle class="cls-194" cx="80.97" cy="93.89" r="8.35"/>
        <circle class="cls-62" cx="80.72" cy="92.98" r="8.33"/>
        <circle class="cls-154" cx="80.48" cy="92.06" r="8.31"/>
        <circle class="cls-131" cx="80.24" cy="91.15" r="8.3"/>
        <circle class="cls-33" cx="79.99" cy="90.23" r="8.28"/>
        <circle class="cls-113" cx="79.75" cy="89.32" r="8.26"/>
        <circle class="cls-38" cx="79.5" cy="88.4" r="8.25"/>
        <circle class="cls-7" cx="79.26" cy="87.48" r="8.23"/>
        <circle class="cls-47" cx="79.02" cy="86.57" r="8.22"/>
        <circle class="cls-197" cx="78.77" cy="85.65" r="8.2"/>
        <circle class="cls-10" cx="78.53" cy="84.74" r="8.19"/>
        <circle class="cls-101" cx="78.28" cy="83.82" r="8.17"/>
        <circle class="cls-196" cx="78.04" cy="82.91" r="8.16"/>
        <circle class="cls-150" cx="77.8" cy="81.99" r="8.15"/>
        <circle class="cls-182" cx="77.55" cy="81.08" r="8.13"/>
        <circle class="cls-156" cx="77.31" cy="80.16" r="8.12"/>
        <circle class="cls-64" cx="77.06" cy="79.24" r="8.11"/>
        <circle class="cls-152" cx="76.82" cy="78.33" r="8.1"/>
        <circle class="cls-42" cx="76.58" cy="77.41" r="8.09"/>
        <circle class="cls-77" cx="76.33" cy="76.5" r="8.08"/>
        <circle class="cls-172" cx="76.09" cy="75.58" r="8.07"/>
        <circle class="cls-26" cx="75.84" cy="74.67" r="8.06"/>
        <circle class="cls-29" cx="75.6" cy="73.75" r="8.05"/>
        <circle class="cls-50" cx="75.36" cy="72.84" r="8.04"/>
        <circle class="cls-20" cx="75.11" cy="71.92" r="8.03"/>
        <circle class="cls-189" cx="74.87" cy="71" r="8.03"/>
        <circle class="cls-176" cx="74.62" cy="70.09" r="8.02"/>
        <circle class="cls-53" cx="74.38" cy="69.17" r="8.01"/>
        <circle class="cls-121" cx="74.14" cy="68.26" r="8.01"/>
        <circle class="cls-27" cx="73.89" cy="67.34" r="8"/>
        <circle class="cls-192" cx="73.65" cy="66.43" r="8"/>
        <circle class="cls-173" cx="73.4" cy="65.51" r="7.99"/>
        <circle class="cls-63" cx="73.16" cy="64.6" r="7.99"/>
        <circle class="cls-117" cx="72.91" cy="63.68" r="7.99"/>
        <circle class="cls-164" cx="72.67" cy="62.77" r="7.98"/>
        <circle class="cls-25" cx="72.43" cy="61.85" r="7.98"/>
        <circle class="cls-80" cx="72.18" cy="60.93" r="7.98"/>
        <circle class="cls-58" cx="71.94" cy="60.02" r="7.98"/>
        <circle class="cls-160" cx="71.69" cy="59.1" r="7.97"/>
        <circle class="cls-129" cx="71.45" cy="58.19" r="7.97"/>
        <circle class="cls-4" cx="71.21" cy="57.27" r="7.97"/>
        <circle class="cls-89" cx="70.96" cy="56.36" r="7.97"/>
        <circle class="cls-36" cx="70.72" cy="55.44" r="7.97"/>
        <circle class="cls-60" cx="70.47" cy="54.53" r="7.97"/>
        <circle class="cls-95" cx="70.23" cy="53.61" r="7.98"/>
        <circle class="cls-134" cx="69.99" cy="52.69" r="7.98"/>
        <circle class="cls-166" cx="69.74" cy="51.78" r="7.98"/>
        <circle class="cls-87" cx="69.5" cy="50.86" r="7.98"/>
        <circle class="cls-127" cx="69.25" cy="49.95" r="7.99"/>
        <circle class="cls-179" cx="69.01" cy="49.03" r="7.99"/>
        <circle class="cls-11" cx="68.77" cy="48.12" r="8"/>
        <circle class="cls-115" cx="68.52" cy="47.2" r="8"/>
        <circle class="cls-13" cx="68.28" cy="46.29" r="8.01"/>
        <circle class="cls-145" cx="68.03" cy="45.37" r="8.01"/>
        <circle class="cls-71" cx="67.79" cy="44.45" r="8.02"/>
        <circle class="cls-111" cx="67.55" cy="43.54" r="8.03"/>
        <circle class="cls-106" cx="67.3" cy="42.62" r="8.03"/>
        <circle class="cls-132" cx="66.65" cy="41.41" r="8.08"/>
        <circle class="cls-165" cx="65.61" cy="40.67" r="8.12"/>
        <circle class="cls-190" cx="64.37" cy="40.45" r="8.17"/>
        <circle class="cls-109" cx="63.15" cy="40.76" r="8.21"/>
        <circle class="cls-118" cx="62.13" cy="41.61" r="8.26"/>
        <circle class="cls-73" cx="61.5" cy="42.82" r="8.3"/>
        <circle class="cls-24" cx="60.93" cy="44.01" r="8.34"/>
        <circle class="cls-31" cx="60.36" cy="45.21" r="8.39"/>
        <circle class="cls-163" cx="59.8" cy="46.4" r="8.43"/>
        <circle class="cls-128" cx="59.23" cy="47.6" r="8.48"/>
        <circle class="cls-79" cx="58.67" cy="48.79" r="8.52"/>
        <circle class="cls-56" cx="58.1" cy="49.98" r="8.57"/>
        <circle class="cls-93" cx="57.53" cy="51.18" r="8.61"/>
        <circle class="cls-94" cx="56.97" cy="52.37" r="8.65"/>
        <circle class="cls-193" cx="56.4" cy="53.56" r="8.7"/>
        <circle class="cls-16" cx="55.83" cy="54.76" r="8.74"/>
        <circle class="cls-114" cx="55.27" cy="55.95" r="8.79"/>
        <circle class="cls-46" cx="54.7" cy="57.14" r="8.83"/>
        <circle class="cls-146" cx="54.13" cy="58.34" r="8.88"/>
        <circle class="cls-59" cx="53.57" cy="59.53" r="8.92"/>
        <circle class="cls-169" cx="53" cy="60.72" r="8.97"/>
        <circle class="cls-153" cx="52.44" cy="61.92" r="9.01"/>
        <circle class="cls-91" cx="51.87" cy="63.11" r="9.05"/>
        <circle class="cls-21" cx="51.3" cy="64.3" r="9.1"/>
        <circle class="cls-180" cx="50.74" cy="65.5" r="9.14"/>
        <circle class="cls-112" cx="50.17" cy="66.69" r="9.19"/>
        <circle class="cls-78" cx="49.6" cy="67.88" r="9.23"/>
        <circle class="cls-14" cx="49.04" cy="69.08" r="9.28"/>
        <circle class="cls-66" cx="48.47" cy="70.27" r="9.32"/>
        <circle class="cls-98" cx="47.91" cy="71.46" r="9.37"/>
        <circle class="cls-97" cx="47.34" cy="72.66" r="9.41"/>
        <circle class="cls-107" cx="46.77" cy="73.85" r="9.45"/>
        <circle class="cls-140" cx="46.21" cy="75.04" r="9.5"/>
        <circle class="cls-148" cx="45.64" cy="76.24" r="9.54"/>
        <circle class="cls-195" cx="45.07" cy="77.43" r="9.59"/>
        <circle class="cls-92" cx="44.51" cy="78.62" r="9.63"/>
        <circle class="cls-23" cx="43.94" cy="79.82" r="9.68"/>
        <circle class="cls-34" cx="43.37" cy="81.01" r="9.72"/>
        <circle class="cls-52" cx="42.81" cy="82.2" r="9.77"/>
        <circle class="cls-138" cx="42.24" cy="83.4" r="9.81"/>
        <circle class="cls-181" cx="41.68" cy="84.59" r="9.85"/>
        <circle class="cls-9" cx="41.11" cy="85.78" r="9.9"/>
        <circle class="cls-161" cx="40.54" cy="86.98" r="9.94"/>
        <circle class="cls-100" cx="39.98" cy="88.17" r="9.99"/>
        <circle class="cls-104" cx="39.41" cy="89.36" r="10.03"/>
        <circle class="cls-84" cx="38.84" cy="90.56" r="10.08"/>
        <circle class="cls-96" cx="38.28" cy="91.75" r="10.12"/>
        <circle class="cls-191" cx="37.71" cy="92.94" r="10.17"/>
        <circle class="cls-76" cx="37.15" cy="94.14" r="10.21"/>
        <circle class="cls-136" cx="36.58" cy="95.33" r="10.25"/>
        <circle class="cls-54" cx="36.01" cy="96.52" r="10.3"/>
        <circle class="cls-19" cx="35.45" cy="97.72" r="10.34"/>
        <circle class="cls-185" cx="34.88" cy="98.91" r="10.39"/>
        <circle class="cls-6" cx="34.31" cy="100.1" r="10.43"/>
        <circle class="cls-51" cx="33.75" cy="101.3" r="10.48"/>
        <circle class="cls-143" cx="33.18" cy="102.49" r="10.52"/>
        <circle class="cls-18" cx="32.61" cy="103.69" r="10.56"/>
        <circle class="cls-158" cx="32.05" cy="104.88" r="10.61"/>
        <circle class="cls-65" cx="31.48" cy="106.07" r="10.65"/>
        <circle class="cls-103" cx="30.92" cy="107.27" r="10.7"/>
        <circle class="cls-126" cx="30.35" cy="108.46" r="10.74"/>
        <circle class="cls-3" cx="29.78" cy="109.65" r="10.79"/>
        <circle class="cls-61" cx="29.22" cy="110.85" r="10.83"/>
        <circle class="cls-75" cx="28.65" cy="112.04" r="10.88"/>
        <circle class="cls-28" cx="28.08" cy="113.23" r="10.92"/>
      </g>
    </g>
  </g>
</svg>